<svg width="32" height="32" viewBox="0 0 32 32" fill="none" xmlns="http://www.w3.org/2000/svg">
<g id="Frame 10">
<rect width="32" height="32" rx="6" fill="url(#paint0_linear_5934_119347)"/>
<g id="Group 1">
<path id="Vector" fill-rule="evenodd" clip-rule="evenodd" d="M4.75044 14.0513L14.2637 4.42505C15.2637 3.4139 16.8993 3.4139 17.8989 4.42505L27.4122 14.0513C28.4117 15.0628 28.4117 16.7178 27.4118 17.7293L17.8985 27.3555C16.8989 28.3674 15.2629 28.3674 14.263 27.3555L4.74966 17.7297C3.75011 16.7182 3.75011 15.0628 4.74966 14.0513H4.75005H4.75044ZM5.69817 15.0006L15.2026 5.38361C15.6859 4.89447 16.4778 4.89447 16.9612 5.38361L26.4656 15.0006C26.9489 15.4897 26.9489 16.2909 26.4652 16.7804L16.9608 26.3966C16.4774 26.8857 15.6859 26.8857 15.2022 26.3966L5.69817 16.7804C5.21444 16.2909 5.21444 15.4897 5.69817 15.0006Z" fill="white"/>
<path id="Vector_2" d="M16.0152 18.167C16.1834 18.3372 16.2673 18.5143 16.2673 18.6991C16.2673 18.8979 16.1904 19.0715 16.0361 19.2203C15.8818 19.3696 15.7063 19.4442 15.5098 19.4442C15.3277 19.4442 15.1452 19.3661 14.9631 19.2099L11.3442 15.6548C11.1199 15.4704 11.0078 15.2716 11.0078 15.059C11.0078 14.8173 11.1269 14.5907 11.3651 14.3777L15.0045 10.8442C15.1727 10.6598 15.3691 10.5674 15.5934 10.5674C15.7755 10.5674 15.9371 10.6351 16.0771 10.7696C16.2175 10.9049 16.2878 11.0643 16.2878 11.2483C16.2878 11.4184 16.2035 11.6029 16.0353 11.8016L12.6481 15.0373L16.0141 18.1667L16.0148 18.167H16.0152Z" fill="white"/>
<path id="Vector_3" d="M16.1484 19.9356C15.9802 20.1061 15.8959 20.2832 15.8959 20.4673C15.8959 20.6664 15.9728 20.8401 16.1271 20.9885C16.2814 21.1378 16.4566 21.2124 16.653 21.2124C16.8351 21.2124 17.0176 21.1343 17.2001 20.9777L20.8186 17.4234C21.0429 17.2386 21.1554 17.0402 21.1554 16.8275C21.1554 16.5863 21.0363 16.3593 20.7973 16.1462L17.158 12.6124C16.9898 12.428 16.7933 12.3356 16.5691 12.3356C16.387 12.3356 16.2253 12.4032 16.0857 12.5378C15.945 12.6724 15.875 12.8321 15.875 13.0165C15.875 13.1866 15.9593 13.3715 16.1275 13.5698L19.5148 16.8055L16.1488 19.9349L16.1492 19.9352L16.1484 19.9356Z" fill="white"/>
</g>
</g>
<defs>
<linearGradient id="paint0_linear_5934_119347" x1="7.44626" y1="20.6453" x2="26.5364" y2="-6.09758" gradientUnits="userSpaceOnUse">
<stop stop-color="#00D29D"/>
<stop offset="1" stop-color="#AFFE8A"/>
</linearGradient>
</defs>
</svg>
